<svg id="Capa_1" enable-background="new 0 0 512.005 512.005" height="512" viewBox="0 0 512.005 512.005" width="512" xmlns="http://www.w3.org/2000/svg"><g><path d="m384.538 60.253c2.455 0 4.799 1.053 6.433 2.888 2.755 3.094 7.496 3.368 10.589.615 3.094-2.754 3.369-7.495.615-10.589-4.478-5.03-10.906-7.914-17.637-7.914-13.018 0-23.609 10.591-23.609 23.608v19.975c0 13.018 10.591 23.608 23.609 23.608 12.267 0 22.375-9.406 23.501-21.383 3.456-.669 6.068-3.708 6.068-7.36 0-4.142-3.358-7.5-7.5-7.5h-12.41c-4.142 0-7.5 3.358-7.5 7.5 0 3.679 2.651 6.733 6.145 7.372-.989 3.664-4.332 6.371-8.304 6.371-4.747 0-8.609-3.862-8.609-8.608v-19.975c0-4.746 3.862-8.608 8.609-8.608z"/><path d="m179.5 112.445c13.018 0 23.609-10.591 23.609-23.608v-19.976c0-13.018-10.591-23.608-23.609-23.608s-23.608 10.591-23.608 23.608v19.975c-.001 13.018 10.59 23.609 23.608 23.609zm-8.609-43.584c0-4.747 3.862-8.608 8.608-8.608 4.747 0 8.609 3.862 8.609 8.608v19.975c0 4.747-3.862 8.608-8.609 8.608s-8.608-3.862-8.608-8.608z"/><path d="m121.511 60.257c2.301 0 4.461.893 6.083 2.515 1.046 1.046 1.811 2.348 2.212 3.764 1.13 3.985 5.277 6.301 9.262 5.169 3.985-1.129 6.3-5.276 5.17-9.261-1.098-3.873-3.186-7.427-6.038-10.279-4.455-4.455-10.382-6.909-16.689-6.909-13.02 0-23.612 10.586-23.612 23.599v19.983c0 6.307 2.454 12.234 6.909 16.689 4.464 4.464 10.396 6.922 16.704 6.922 10.53 0 19.877-7.079 22.73-17.214 1.123-3.987-1.2-8.129-5.187-9.252-3.99-1.125-8.129 1.2-9.252 5.187-1.041 3.698-4.451 6.28-8.292 6.28-2.301 0-4.466-.898-6.097-2.529-1.622-1.622-2.515-3.782-2.515-6.083v-19.983c0-4.741 3.863-8.598 8.612-8.598z"/><path d="m444.322 0h-267.461c-4.142 0-7.5 3.358-7.5 7.5s3.358 7.5 7.5 7.5h267.461c1.271 0 2.306 1.034 2.306 2.306v114.333h-104.127c-8.46-10.797-16.825-19.854-24.564-27.343v-25.115l18.336 29.703c1.391 2.253 3.829 3.562 6.382 3.561.68 0 1.369-.093 2.047-.285 3.227-.916 5.453-3.862 5.453-7.215v-52.192c0-4.142-3.358-7.5-7.5-7.5s-7.5 3.358-7.5 7.5v25.764l-18.336-29.703c-1.762-2.854-5.205-4.192-8.429-3.275-3.227.916-5.453 3.861-5.453 7.215v38.182c-5.112-4.17-9.628-7.473-13.304-9.986v-28.197c0-4.142-3.358-7.5-7.5-7.5s-7.5 3.358-7.5 7.5v19.933c-4.496-1.297-9.17-1.298-13.534-.159v-19.774c0-3.046-1.842-5.79-4.662-6.942-2.817-1.152-6.056-.485-8.19 1.688l-10.757 10.958-10.756-10.958c-2.133-2.174-5.372-2.841-8.19-1.688-2.82 1.153-4.662 3.896-4.662 6.942v52.192c0 4.142 3.358 7.5 7.5 7.5s7.5-3.358 7.5-7.5v-33.845l3.256 3.317c1.41 1.437 3.339 2.246 5.352 2.246s3.942-.81 5.352-2.246l3.257-3.317v12.272c-.409.635-.797 1.288-1.154 1.969-5.289 10.083-3.153 22.119 4.445 29.803-3.293 5.73-6.591 11.223-9.883 16.496h-174.13v-114.334c0-1.271 1.034-2.306 2.306-2.306h75.178c4.142 0 7.5-3.358 7.5-7.5s-3.358-7.5-7.5-7.5h-75.178c-9.543 0-17.306 7.763-17.306 17.306v268.02c0 59.615 25.874 112.239 76.877 156.456v21.386c0 9.542 7.763 17.306 17.306 17.306h38.029c.164.111.33.221.505.32 30.969 17.515 57.521 27.051 67.5 30.338 1.77.583 3.588.874 5.408.874s3.641-.292 5.41-.874c10.021-3.301 36.683-12.879 67.74-30.474.1-.057.192-.123.289-.184h46.376c9.542 0 17.306-7.763 17.306-17.306v-28.935c45.45-42.676 68.505-92.765 68.505-148.908v-49.07c0-4.142-3.358-7.5-7.5-7.5s-7.5 3.358-7.5 7.5v49.07c0 47.46-17.988 90.378-53.505 127.784v-49.594c0-9.542-7.763-17.306-17.306-17.306h-130.452l-10.668-38.985c11.699-3.294 24.204-6.065 37.494-8.277 4.086-.68 6.847-4.543 6.167-8.629s-4.542-6.848-8.629-6.167c-14.899 2.48-28.902 5.638-41.951 9.447-9.724-9.85-18.198-20.951-25.2-33.079-7.004-12.131-12.382-25.023-16.051-38.371 11.58-11.076 23.036-23.737 34.293-37.958 17.754-22.429 31.664-44.468 40.947-60.491 3.759 2.608 8.989 6.542 15.054 11.962 11.704 10.458 28.98 28.683 44.819 56.117 22.48 38.937 27.758 71.846 28.991 85.893-11.812.024-28.226.46-46.653 2.126-4.125.373-7.167 4.02-6.794 8.145.353 3.896 3.624 6.825 7.461 6.825.226 0 .455-.01.684-.031 18.568-1.679 35.032-2.075 46.585-2.068 2.889 10.393 12.235 18.24 23.568 18.7.348.014.693.021 1.037.021 13.733 0 24.927-10.755 25.484-24.485.09-2.213 1.757-54.965-36.164-120.645-4.04-6.997-8.177-13.528-12.348-19.62h93.139v55.616c0 4.142 3.358 7.5 7.5 7.5s7.5-3.358 7.5-7.5v-184.949c-.002-9.543-7.765-17.306-17.308-17.306zm-187.602 496.883c-.47.155-.965.155-1.434 0-6.79-2.237-21.607-7.503-40.307-16.411h82.046c-18.69 8.903-33.505 14.171-40.305 16.411zm121.403-133.368v99.653c0 1.271-1.034 2.306-2.306 2.306h-231.257c-1.271 0-2.306-1.034-2.306-2.306v-99.653c0-1.271 1.034-2.306 2.306-2.306h231.258c1.271 0 2.305 1.034 2.305 2.306zm-238.335-93.765 23.399 40.529-17.984 10.383c-5.879 3.394-13.426 1.373-16.822-4.508l-11.084-19.199c-3.395-5.88-1.373-13.427 4.507-16.822zm90.026 76.459h-28.561l-12.275-21.261c9.523-4.98 19.999-9.418 31.383-13.289zm-40.227-78.191c6.381 11.052 13.88 21.333 22.363 30.691-10.965 3.898-21.149 8.308-30.486 13.227l-33.974-58.844c8.936-5.631 17.845-12.247 26.698-19.787 3.863 12.025 9.018 23.66 15.399 34.713zm-50.669-27.255c-5.449 3.406-7.799 9.832-6.201 15.749l-18.413 10.631c-13.043 7.531-17.528 24.269-9.998 37.312l11.084 19.199c5.054 8.753 14.253 13.652 23.701 13.652 4.63 0 9.321-1.177 13.611-3.654l17.984-10.383 13.245 22.94h-39.371c-9.542 0-17.306 7.763-17.306 17.306v57.988c-41.063-39.299-61.877-85.042-61.877-136.177v-138.687h164.393c-38.885 57.546-75.318 84.415-90.852 94.124zm248.096 45.534c-.229 5.659-4.84 10.092-10.497 10.092-.149 0-.299-.003-.439-.009-5.769-.234-10.293-5.118-10.083-10.974.045-1.833.726-45.545-31.366-101.129-16.832-29.155-35.292-48.613-47.814-59.802-13.781-12.315-23.707-17.723-24.198-17.988-2.481-1.302-4.303-3.489-5.131-6.16-.83-2.676-.565-5.524.743-8.019 1.875-3.575 5.541-5.62 9.335-5.62 1.657 0 3.338.39 4.905 1.212 1.805.947 44.606 23.898 80.378 85.858 35.773 61.96 34.249 110.503 34.167 112.539z"/><path d="m190.784 427.422h-15.853c-4.142 0-7.5 3.358-7.5 7.5s3.358 7.5 7.5 7.5h15.853c10.085 0 18.29-8.205 18.29-18.291 0-10.085-8.205-18.29-18.29-18.29h-5.063c-1.814 0-3.291-1.476-3.291-3.291s1.476-3.291 3.291-3.291h15.853c4.142 0 7.5-3.358 7.5-7.5s-3.358-7.5-7.5-7.5h-15.853c-10.085 0-18.291 8.205-18.291 18.291s8.205 18.291 18.291 18.291h5.063c1.814 0 3.29 1.476 3.29 3.29 0 1.815-1.476 3.291-3.29 3.291z"/><path d="m236.21 442.422c11.481 0 20.821-9.34 20.821-20.821v-16.519c0-11.481-9.34-20.821-20.821-20.821s-20.822 9.34-20.822 20.821v16.519c0 11.481 9.341 20.821 20.822 20.821zm-5.822-37.34c0-3.21 2.612-5.821 5.822-5.821s5.821 2.611 5.821 5.821v16.519c0 3.21-2.611 5.821-5.821 5.821s-5.822-2.611-5.822-5.821z"/><path d="m284.167 442.422c11.481 0 20.822-9.34 20.822-20.821v-16.519c0-11.481-9.341-20.821-20.822-20.821s-20.821 9.34-20.821 20.821v16.519c0 11.481 9.34 20.821 20.821 20.821zm-5.821-37.34c0-3.21 2.611-5.821 5.821-5.821s5.822 2.611 5.822 5.821v16.519c0 3.21-2.612 5.821-5.822 5.821s-5.821-2.611-5.821-5.821z"/><path d="m318.803 442.422c4.142 0 7.5-3.358 7.5-7.5v-16.733l12.761 20.673c1.391 2.253 3.829 3.562 6.382 3.561.68 0 1.369-.093 2.047-.285 3.227-.916 5.453-3.862 5.453-7.215v-43.163c0-4.142-3.358-7.5-7.5-7.5s-7.5 3.358-7.5 7.5v16.733l-12.761-20.673c-1.761-2.854-5.204-4.191-8.429-3.276-3.227.916-5.453 3.862-5.453 7.215v43.162c0 4.143 3.358 7.501 7.5 7.501z"/><path d="m208.178 218.185c-4.142 0-7.5 3.358-7.5 7.5s3.358 7.5 7.5 7.5h.102c4.142 0 7.5-3.358 7.5-7.5s-3.358-7.5-7.5-7.5z"/></g></svg>